{
  "accessors": [
    {
      "bufferView": 2,
      "componentType": 5126,
      "count": 7580,
      "max": [
        1.6940369606018066,
        2.4019875526428223,
        1.9758379459381104
      ],
      "min": [
        -3.0180163383483887,
        -6.2089614868164062,
        0.015954136848449707
      ],
      "type": "VEC3"
    },
    {
      "bufferView": 2,
      "byteOffset": 90960,
      "componentType": 5126,
      "count": 7580,
      "max": [
        0.99999678134918213,
        1,
        1
      ],
      "min": [
        -0.99996393918991089,
        -1,
        -1
      ],
      "type": "VEC3"
    },
    {
      "bufferView": 3,
      "componentType": 5126,
      "count": 7580,
      "max": [
        0.99997407197952271,
        0.99619507789611816,
        1,
        1
      ],
      "min": [
        -0.99762606620788574,
        -0.95920199155807495,
        -1,
        -1
      ],
      "type": "VEC4"
    },
    {
      "bufferView": 1,
      "componentType": 5126,
      "count": 7580,
      "max": [
        491.72256469726562,
        3.7452685832977295
      ],
      "min": [
        -80.383293151855469,
        -1594.3438720703125
      ],
      "type": "VEC2"
    },
    {
      "bufferView": 0,
      "componentType": 5125,
      "count": 32604,
      "max": [
        7579
      ],
      "min": [
        0
      ],
      "type": "SCALAR"
    }
  ],
  "asset": {
    "extras": {
      "author": "3D Share (https://sketchfab.com/3dsharesg)",
      "license": "CC-BY-4.0 (http://creativecommons.org/licenses/by/4.0/)",
      "source": "https://sketchfab.com/models/7aeae41398f34c4fa5de50c2e6276b11",
      "title": "Telephone"
    },
    "generator": "Sketchfab-3.19.6",
    "version": "2.0"
  },
  "bufferViews": [
    {
      "buffer": 0,
      "byteLength": 130416,
      "byteOffset": 0,
      "name": "floatBufferViews",
      "target": 34963
    },
    {
      "buffer": 0,
      "byteLength": 60640,
      "byteOffset": 130416,
      "byteStride": 8,
      "name": "floatBufferViews",
      "target": 34962
    },
    {
      "buffer": 0,
      "byteLength": 181920,
      "byteOffset": 191056,
      "byteStride": 12,
      "name": "floatBufferViews",
      "target": 34962
    },
    {
      "buffer": 0,
      "byteLength": 121280,
      "byteOffset": 372976,
      "byteStride": 16,
      "name": "floatBufferViews",
      "target": 34962
    }
  ],
  "buffers": [
    {
      "byteLength": 494256,
      "uri": "scene.bin"
    }
  ],
  "images": [
    {
      "uri": "textures/Material_57_baseColor.png"
    },
    {
      "uri": "textures/Material_57_metallicRoughness.png"
    }
  ],
  "materials": [
    {
      "doubleSided": true,
      "emissiveFactor": [
        0,
        0,
        0
      ],
      "name": "Material_57",
      "pbrMetallicRoughness": {
        "baseColorFactor": [
          1,
          1,
          1,
          1
        ],
        "baseColorTexture": {
          "index": 0,
          "texCoord": 0
        },
        "metallicFactor": 0,
        "metallicRoughnessTexture": {
          "index": 1,
          "texCoord": 0
        },
        "roughnessFactor": 1
      }
    }
  ],
  "meshes": [
    {
      "name": "Telephone_Material #57_0",
      "primitives": [
        {
          "attributes": {
            "NORMAL": 1,
            "POSITION": 0,
            "TANGENT": 2,
            "TEXCOORD_0": 3
          },
          "indices": 4,
          "material": 0,
          "mode": 4
        }
      ]
    }
  ],
  "nodes": [
    {
      "children": [
        1
      ],
      "name": "RootNode (gltf orientation matrix)",
      "rotation": [
        -0.70710678118654746,
        -0,
        -0,
        0.70710678118654757
      ]
    },
    {
      "children": [
        2
      ],
      "name": "RootNode (model correction matrix)"
    },
    {
      "children": [
        3
      ],
      "matrix": [
        1,
        0,
        0,
        0,
        0,
        0,
        1,
        0,
        0,
        -1,
        0,
        0,
        0,
        0,
        0,
        1
      ],
      "name": "TLP.FBX"
    },
    {
      "children": [
        4
      ],
      "name": "RootNode"
    },
    {
      "children": [
        5
      ],
      "matrix": [
        0.99689466708316865,
        0,
        0.078746572885036351,
        0,
        0.078746572885036351,
        0,
        -0.99689466708316876,
        0,
        0,
        0.99999994039535522,
        0,
        0,
        0,
        0,
        0,
        1
      ],
      "name": "Telephone"
    },
    {
      "children": [
        6
      ],
      "matrix": [
        1,
        0,
        -0,
        0,
        0,
        1,
        0,
        0,
        0,
        0,
        1,
        0,
        0.66199111938476562,
        1.9034862518310547,
        -0.9958953857421875,
        1
      ],
      "name": ""
    },
    {
      "mesh": 0,
      "name": "Telephone_Material #57_0"
    }
  ],
  "samplers": [
    {
      "magFilter": 9729,
      "minFilter": 9987,
      "wrapS": 10497,
      "wrapT": 10497
    }
  ],
  "scene": 0,
  "scenes": [
    {
      "name": "OSG_Scene",
      "nodes": [
        0
      ]
    }
  ],
  "textures": [
    {
      "sampler": 0,
      "source": 0
    },
    {
      "sampler": 0,
      "source": 1
    }
  ]
}

