{
  "accessors": [
    {
      "bufferView": 2,
      "componentType": 5126,
      "count": 5843,
      "max": [
        1.8992466926574707,
        5.8080539703369141,
        1.8992470502853394
      ],
      "min": [
        -1.8992465734481812,
        -0.0071456432342529297,
        -1.8992470502853394
      ],
      "type": "VEC3"
    },
    {
      "bufferView": 2,
      "byteOffset": 70116,
      "componentType": 5126,
      "count": 5843,
      "max": [
        0.99999594688415527,
        1,
        0.9999958872795105
      ],
      "min": [
        -0.99999582767486572,
        -1,
        -0.99999582767486572
      ],
      "type": "VEC3"
    },
    {
      "bufferView": 1,
      "componentType": 5126,
      "count": 5843,
      "max": [
        3.0414538383483887,
        0.97341609001159668
      ],
      "min": [
        -0.49950975179672241,
        0.0051146447658538818
      ],
      "type": "VEC2"
    },
    {
      "bufferView": 0,
      "componentType": 5125,
      "count": 29952,
      "max": [
        5842
      ],
      "min": [
        0
      ],
      "type": "SCALAR"
    },
    {
      "bufferView": 2,
      "byteOffset": 140232,
      "componentType": 5126,
      "count": 54156,
      "max": [
        1.7840864658355713,
        7.7491369247436523,
        1.759364128112793
      ],
      "min": [
        -1.9087767601013184,
        4.9061193466186523,
        -1.8983736038208008
      ],
      "type": "VEC3"
    },
    {
      "bufferView": 2,
      "byteOffset": 790104,
      "componentType": 5126,
      "count": 54156,
      "max": [
        0.99990636110305786,
        0.99999505281448364,
        0.99994999170303345
      ],
      "min": [
        -0.99999958276748657,
        -1,
        -0.9999392032623291
      ],
      "type": "VEC3"
    },
    {
      "bufferView": 1,
      "byteOffset": 46744,
      "componentType": 5126,
      "count": 54156,
      "max": [
        15.431236267089844,
        9.7717885971069336
      ],
      "min": [
        -2.2697725296020508,
        -8.7717885971069336
      ],
      "type": "VEC2"
    },
    {
      "bufferView": 1,
      "byteOffset": 479992,
      "componentType": 5126,
      "count": 54156,
      "max": [
        15.431236267089844,
        9.7717885971069336
      ],
      "min": [
        -2.2697725296020508,
        -8.7717885971069336
      ],
      "type": "VEC2"
    },
    {
      "bufferView": 0,
      "byteOffset": 119808,
      "componentType": 5125,
      "count": 225000,
      "max": [
        54155
      ],
      "min": [
        0
      ],
      "type": "SCALAR"
    },
    {
      "bufferView": 2,
      "byteOffset": 1439976,
      "componentType": 5126,
      "count": 30139,
      "max": [
        1.8055559396743774,
        7.7761406898498535,
        1.7626379728317261
      ],
      "min": [
        -1.7984267473220825,
        4.9770503044128418,
        -1.6422824859619141
      ],
      "type": "VEC3"
    },
    {
      "bufferView": 2,
      "byteOffset": 1801644,
      "componentType": 5126,
      "count": 30139,
      "max": [
        0.99972027540206909,
        0.99998855590820312,
        0.99999845027923584
      ],
      "min": [
        -0.99989920854568481,
        -0.9999966025352478,
        -0.99997001886367798
      ],
      "type": "VEC3"
    },
    {
      "bufferView": 1,
      "byteOffset": 913240,
      "componentType": 5126,
      "count": 30139,
      "max": [
        -19.907920837402344,
        10.761343002319336
      ],
      "min": [
        -39.301548004150391,
        -9.7613430023193359
      ],
      "type": "VEC2"
    },
    {
      "bufferView": 1,
      "byteOffset": 1154352,
      "componentType": 5126,
      "count": 30139,
      "max": [
        -19.907920837402344,
        10.761343002319336
      ],
      "min": [
        -39.301548004150391,
        -9.7613430023193359
      ],
      "type": "VEC2"
    },
    {
      "bufferView": 0,
      "byteOffset": 1019808,
      "componentType": 5125,
      "count": 90000,
      "max": [
        30138
      ],
      "min": [
        0
      ],
      "type": "SCALAR"
    }
  ],
  "asset": {
    "extras": {
      "author": "Emmabrain (https://sketchfab.com/Emmabrain)",
      "license": "CC-BY-4.0 (http://creativecommons.org/licenses/by/4.0/)",
      "source": "https://sketchfab.com/3d-models/pop-corn-c634fde3642d472d9679d989ea0f57c5",
      "title": "Pop Corn"
    },
    "generator": "Sketchfab-9.62.3",
    "version": "2.0"
  },
  "bufferViews": [
    {
      "buffer": 0,
      "byteLength": 1379808,
      "byteOffset": 0,
      "name": "floatBufferViews",
      "target": 34963
    },
    {
      "buffer": 0,
      "byteLength": 1395464,
      "byteOffset": 1379808,
      "byteStride": 8,
      "name": "floatBufferViews",
      "target": 34962
    },
    {
      "buffer": 0,
      "byteLength": 2163312,
      "byteOffset": 2775272,
      "byteStride": 12,
      "name": "floatBufferViews",
      "target": 34962
    }
  ],
  "buffers": [
    {
      "byteLength": 4938584,
      "uri": "scene.bin"
    }
  ],
  "images": [
    {
      "uri": "textures/blinn3_baseColor.jpeg"
    },
    {
      "uri": "textures/lambert2_baseColor.jpeg"
    },
    {
      "uri": "textures/lambert3_baseColor.jpeg"
    }
  ],
  "materials": [
    {
      "doubleSided": true,
      "emissiveFactor": [
        0,
        0,
        0
      ],
      "name": "blinn3",
      "pbrMetallicRoughness": {
        "baseColorFactor": [
          1,
          1,
          1,
          1
        ],
        "baseColorTexture": {
          "index": 0,
          "texCoord": 0
        },
        "metallicFactor": 0,
        "roughnessFactor": 0.92074838162494832
      }
    },
    {
      "doubleSided": true,
      "emissiveFactor": [
        0,
        0,
        0
      ],
      "name": "lambert2",
      "pbrMetallicRoughness": {
        "baseColorFactor": [
          1,
          1,
          1,
          1
        ],
        "baseColorTexture": {
          "index": 1,
          "texCoord": 0
        },
        "metallicFactor": 0,
        "roughnessFactor": 0.59999999999999998
      }
    },
    {
      "doubleSided": true,
      "emissiveFactor": [
        0,
        0,
        0
      ],
      "name": "lambert3",
      "pbrMetallicRoughness": {
        "baseColorFactor": [
          1,
          1,
          1,
          1
        ],
        "baseColorTexture": {
          "index": 2,
          "texCoord": 0
        },
        "metallicFactor": 0,
        "roughnessFactor": 0.59999999999999998
      }
    }
  ],
  "meshes": [
    {
      "name": "cup_blinn3_0",
      "primitives": [
        {
          "attributes": {
            "NORMAL": 1,
            "POSITION": 0,
            "TEXCOORD_0": 2
          },
          "indices": 3,
          "material": 0,
          "mode": 4
        }
      ]
    },
    {
      "name": "corn1_lambert2_0",
      "primitives": [
        {
          "attributes": {
            "NORMAL": 5,
            "POSITION": 4,
            "TEXCOORD_0": 6,
            "TEXCOORD_1": 7
          },
          "indices": 8,
          "material": 1,
          "mode": 4
        }
      ]
    },
    {
      "name": "corn1_lambert3_0",
      "primitives": [
        {
          "attributes": {
            "NORMAL": 10,
            "POSITION": 9,
            "TEXCOORD_0": 11,
            "TEXCOORD_1": 12
          },
          "indices": 13,
          "material": 2,
          "mode": 4
        }
      ]
    }
  ],
  "nodes": [
    {
      "children": [
        1
      ],
      "name": "RootNode (gltf orientation matrix)",
      "rotation": [
        -0.70710678118654746,
        -0,
        -0,
        0.70710678118654757
      ]
    },
    {
      "children": [
        2
      ],
      "name": "RootNode (model correction matrix)"
    },
    {
      "children": [
        3
      ],
      "matrix": [
        1,
        0,
        0,
        0,
        0,
        0,
        1,
        0,
        0,
        -1,
        0,
        0,
        0,
        0,
        0,
        1
      ],
      "name": "fbxPopCorn.fbx"
    },
    {
      "children": [
        4
      ],
      "name": "RootNode"
    },
    {
      "children": [
        5,
        7
      ],
      "name": "PopCornCup"
    },
    {
      "children": [
        6
      ],
      "name": "cup"
    },
    {
      "mesh": 0,
      "name": "cup_blinn3_0"
    },
    {
      "children": [
        8,
        9
      ],
      "matrix": [
        1.0853471755981445,
        0,
        0,
        0,
        0,
        1.0853471755981445,
        0,
        0,
        0,
        0,
        1.0853471755981445,
        0,
        -0.00040273703052662313,
        -0.34927767515182495,
        -0.0018674808088690042,
        1
      ],
      "name": "corn1"
    },
    {
      "mesh": 1,
      "name": "corn1_lambert2_0"
    },
    {
      "mesh": 2,
      "name": "corn1_lambert3_0"
    }
  ],
  "samplers": [
    {
      "magFilter": 9729,
      "minFilter": 9987,
      "wrapS": 10497,
      "wrapT": 10497
    }
  ],
  "scene": 0,
  "scenes": [
    {
      "name": "OSG_Scene",
      "nodes": [
        0
      ]
    }
  ],
  "textures": [
    {
      "sampler": 0,
      "source": 0
    },
    {
      "sampler": 0,
      "source": 1
    },
    {
      "sampler": 0,
      "source": 2
    }
  ]
}

